<?xml version="1.0" encoding="UTF-8" standalone="no"?>
<!-- Created with Inkscape (http://www.inkscape.org/) -->

<svg
   width="39.189621mm"
   height="38.743584mm"
   viewBox="0 0 39.189621 38.743584"
   version="1.1"
   id="svg1"
   xml:space="preserve"
   sodipodi:docname="logo.svg"
   inkscape:version="1.3.2 (091e20e, 2023-11-25, custom)"
   xmlns:inkscape="http://www.inkscape.org/namespaces/inkscape"
   xmlns:sodipodi="http://sodipodi.sourceforge.net/DTD/sodipodi-0.dtd"
   xmlns="http://www.w3.org/2000/svg"
   xmlns:svg="http://www.w3.org/2000/svg"><sodipodi:namedview
     id="namedview1"
     pagecolor="#505050"
     bordercolor="#eeeeee"
     borderopacity="1"
     inkscape:showpageshadow="0"
     inkscape:pageopacity="0"
     inkscape:pagecheckerboard="0"
     inkscape:deskcolor="#505050"
     inkscape:document-units="mm"
     inkscape:zoom="0.76702441"
     inkscape:cx="396.3368"
     inkscape:cy="455.65695"
     inkscape:window-width="1920"
     inkscape:window-height="1057"
     inkscape:window-x="-8"
     inkscape:window-y="-8"
     inkscape:window-maximized="1"
     inkscape:current-layer="svg1" /><defs
     id="defs1" /><g
     id="layer1"
     transform="translate(-89.902331,-134.31402)"><path
       style="fill:#ff8c00;fill-opacity:1;stroke-width:0.264583"
       d="m 107.96864,134.52961 -0.12936,1.12109"
       id="path4" /><path
       style="fill:#ff8c00;fill-opacity:1;stroke-width:0.264583"
       d="m 108.22735,134.31402 -0.4743,1.07796"
       id="path5" /><path
       style="fill:#ff8c00;fill-opacity:1;stroke-width:0.264583"
       d="m 108.42016,134.64101 c 0.10163,0.0813 0.21287,0.15189 0.3049,0.24392 0.17132,0.17132 0.2946,0.38778 0.48783,0.54881 0.21863,0.18219 0.3634,0.32632 0.54881,0.54881 0.0736,0.0883 0.18475,0.14531 0.24391,0.24391 0.0331,0.0551 0.0322,0.12545 0.061,0.18294 0.0467,0.0934 0.10867,0.0477 0.18294,0.12195 0.0699,0.0699 0.11305,0.23502 0.18293,0.3049 0.0321,0.0321 0.0898,0.0288 0.12196,0.061 0.0894,0.0894 0.10678,0.26432 0.18293,0.36587 0.28491,0.37987 0.73038,0.62784 0.97566,1.03664 0.0331,0.0551 0.0279,0.12782 0.061,0.18293 0.0868,0.14466 0.25908,0.19811 0.36587,0.3049 0.1321,0.1321 0.19387,0.3398 0.30489,0.48783 0.061,0.0813 0.18754,0.0984 0.24392,0.18293 0.0225,0.0338 -0.0226,0.0881 0,0.12196 0.0252,0.0378 0.0898,0.0288 0.12195,0.061 0.0575,0.0575 0.40811,0.65676 0.42685,0.73174 0.0148,0.0592 -0.012,0.12315 0,0.18294 0.0493,0.24638 0.21143,0.47181 0.24392,0.73174 0.0303,0.2425 0.0307,0.48925 0.061,0.73175 -0.0102,0.15509 0.10103,0.28036 0.12195,0.42685 0.0283,0.19835 -0.0329,0.41216 0,0.60979 0.0402,0.24092 0.0971,0.47856 0.061,0.73174 -0.0411,0.28768 -0.0813,0.56891 -0.12195,0.8537 0.006,0.15441 -0.0976,0.28089 -0.12196,0.42686 -0.0265,0.15869 -0.022,0.33176 -0.061,0.48782 -0.011,0.0441 -0.0521,0.0774 -0.061,0.12196 -0.012,0.0598 0.012,0.12314 0,0.18294 -0.0244,0.12197 -0.0976,0.2439 -0.12196,0.36587 -0.0287,0.1437 -0.0257,0.28577 -0.061,0.42685 -0.0178,0.0711 -0.10418,0.11184 -0.12195,0.18294 -0.0148,0.0592 0.012,0.12314 0,0.18293 -0.0441,0.22062 -0.19743,0.60465 -0.3049,0.79273 -0.0285,0.0499 -0.0962,0.0705 -0.12195,0.12195 -0.0182,0.0364 0.0129,0.0834 0,0.12196 -0.087,0.26093 -0.31139,0.5618 -0.42686,0.79272 -0.1176,0.23522 -0.20471,0.51688 -0.36587,0.73175 -0.10811,0.14414 -0.2211,0.25927 -0.30489,0.42685 -0.0858,0.17149 -0.0987,0.34264 -0.24392,0.48783 -0.0321,0.0321 -0.0947,0.0246 -0.12195,0.061 -0.0386,0.0514 -0.0371,0.12326 -0.061,0.18294 -0.0421,0.10526 -0.28026,0.50276 -0.36588,0.60978 -0.0718,0.0898 -0.18013,0.14825 -0.24391,0.24392 -0.0683,0.10244 -0.0963,0.27928 -0.18293,0.36587 -0.0321,0.0321 -0.0947,0.0246 -0.12196,0.061 -0.0714,0.0952 -0.035,0.21793 -0.12196,0.30489 -0.0743,0.0743 -0.13624,0.0286 -0.18294,0.12196 -0.0287,0.0575 -0.0224,0.13151 -0.061,0.18294 -0.0465,0.062 -0.33897,0.2487 -0.42685,0.36587 -0.0948,0.12634 -0.29483,0.28478 -0.36587,0.42685 -0.009,0.0182 0.0144,0.0466 0,0.061 -0.0144,0.0144 -0.0428,-0.009 -0.061,0 -0.25378,0.12689 0.0652,-0.004 -0.061,0.12195 -0.0144,0.0144 -0.0428,-0.009 -0.061,0 -0.0934,0.0467 -0.0477,0.10867 -0.12196,0.18294 -0.0321,0.0321 -0.0898,0.0288 -0.12196,0.061 -0.12617,0.12617 0.1928,-0.005 -0.061,0.12196 -0.0841,0.042 -0.0545,-0.0738 -0.12196,0.061 -0.0182,0.0364 0.0288,0.0932 0,0.12195 -0.0375,0.0375 -0.1421,0.0403 -0.18293,0.12196 -0.0421,0.0841 0.0739,0.0545 -0.061,0.12196 -0.13284,0.0664 -0.74148,0 -0.91468,0 -0.12664,0 -0.36433,0.0412 -0.48783,0 -0.0273,-0.009 -0.0331,-0.054 -0.061,-0.061 -0.17954,-0.0449 -1.40364,-0.0303 -1.58545,0 -0.0634,0.0106 -0.11953,0.0504 -0.18293,0.061 -0.30532,0.0509 -0.66657,0 -0.97566,0 -0.23326,0 -0.38851,0.0241 -0.60979,0.061 -0.26854,0.0447 -0.58085,0 -0.8537,0 -0.22931,0 -0.7181,-0.0655 -0.91468,0 -0.15021,0.0501 -0.26691,0.061 -0.42685,0.061 -0.0641,0 -0.32544,0.0404 -0.36588,0 -0.0815,-0.0815 -0.0774,-0.37655 -0.12195,-0.48783 -0.0272,-0.068 -0.0988,-0.11341 -0.12196,-0.18294 -0.0193,-0.0579 0.01,-0.12279 0,-0.18294 -0.0279,-0.16716 -0.15621,-0.32748 -0.18294,-0.48782 -0.0319,-0.19168 -0.0294,-0.35952 -0.061,-0.54881 -0.0561,-0.33637 -0.20179,-0.63868 -0.24391,-0.97566 -0.139476,-1.1158 0.11486,0.37008 0,-0.54881 -0.0601,-0.48056 -0.141973,-1.16046 -0.061,-1.64643 0.0266,-0.1598 0.0839,-0.33549 0.12196,-0.48783 0.008,-0.0321 0.11794,-0.16689 0.12196,-0.18293 0.0148,-0.0592 -0.012,-0.12314 0,-0.18294 0.11031,-0.55157 0.006,0.16563 0.12195,-0.18294 0.0129,-0.0386 -0.0129,-0.0834 0,-0.12195 0.0202,-0.0607 0.10172,-0.12221 0.12196,-0.18294 0.0129,-0.0386 -0.01,-0.0825 0,-0.12196 0.0369,-0.1476 0.0918,-0.12242 0.18294,-0.24391 0.10732,-0.1431 0.13659,-0.34474 0.24391,-0.48783 0.13637,-0.18183 0.77446,-0.85494 0.97566,-0.97566 0.15691,-0.0941 0.33092,-0.14977 0.48783,-0.24392 0.0493,-0.0296 0.0741,-0.0901 0.12196,-0.12195 0.0338,-0.0225 0.0932,0.0287 0.12196,0 0.0144,-0.0144 -0.005,-0.0807 0,-0.061 0.0953,0.38126 0.16174,0.77512 0.24391,1.15859 0.031,0.1447 0.0976,0.28089 0.12196,0.42686 0.0514,0.30829 0.11674,0.59935 0.24391,0.8537 0.0226,0.0453 0.11073,0.47659 0.12196,0.48783 0.11837,0.11837 0.25025,-0.25025 0.30489,-0.3049 0.0321,-0.0321 0.0898,-0.0288 0.12196,-0.061 0.51404,-0.51404 -0.21383,0.13009 0.18294,-0.36587 0.0458,-0.0572 0.13111,-0.0701 0.18293,-0.12196 0.0922,-0.0922 0.17986,-0.26979 0.24392,-0.36587 0.1191,-0.17865 0.12142,-0.0912 0.30489,-0.18293 0.10107,-0.0505 0.11383,-0.17481 0.18294,-0.24392 0.1481,-0.1481 0.0895,0.0181 0.18293,-0.12196 0.0252,-0.0378 0.0288,-0.0898 0.061,-0.12195 0.12617,-0.12617 -0.005,0.1928 0.12196,-0.061 0.0325,-0.065 -0.0604,-0.0815 0.061,-0.12196 0.0386,-0.0129 0.0881,0.0225 0.12196,0 0.0378,-0.0252 0.0246,-0.0947 0.061,-0.12196 0.0514,-0.0386 0.13274,-0.0208 0.18293,-0.061 0.0572,-0.0458 0.0701,-0.13112 0.12196,-0.18294 0.0724,-0.0724 0.23463,-0.1361 0.30489,-0.18294 0.0501,-0.0334 0.64916,-0.69934 0.67077,-0.73174 0.0356,-0.0535 0.0208,-0.13275 0.061,-0.18294 0.10917,-0.13647 0.42597,-0.24127 0.48783,-0.42685 0.0129,-0.0386 -0.0226,-0.0881 0,-0.12196 0.16261,-0.24391 0.10163,0.14229 0.18293,-0.18293 0.0733,-0.29315 0.20167,-0.41271 0.3049,-0.67077 0.18273,-0.45684 0.43501,-0.94734 0.5488,-1.40251 0.0284,-0.11363 0.15056,-0.20773 0.18294,-0.30489 0.0129,-0.0386 -0.0129,-0.0834 0,-0.12196 0.009,-0.0273 0.0519,-0.0337 0.061,-0.061 0.0879,-0.26359 0.0768,-0.46644 0.18294,-0.73174 0.0515,-0.1288 0.0207,-0.2449 0.061,-0.36588 0.0287,-0.0862 0.0999,-0.15572 0.12195,-0.24391 0.0336,-0.13452 0.0336,-0.29019 0.061,-0.42685 0.0545,-0.27258 0.13655,-0.5144 0.18294,-0.79273 0.0194,-0.11631 -0.0285,-0.25169 0,-0.36587 0.0734,-0.29355 0.12325,-0.72525 0.061,-1.03664 -0.0708,-0.35391 -0.15866,-0.69562 -0.24392,-1.03663 -0.0392,-0.15688 -0.0216,-0.33048 -0.061,-0.48783 0.0368,-0.11037 -0.0988,-0.11341 -0.12195,-0.18294 -0.0129,-0.0386 0,-0.0813 0,-0.12196 -0.0203,-0.061 -0.0371,-0.12325 -0.061,-0.18293 -0.0403,-0.10062 -0.15247,-0.21348 -0.18294,-0.3049 -0.0129,-0.0386 0.0225,-0.0881 0,-0.12196 -0.0252,-0.0378 -0.0968,-0.0231 -0.12196,-0.061 -0.0225,-0.0338 0.01,-0.0825 0,-0.12196 -0.0335,-0.13385 -0.13051,-0.13908 -0.18293,-0.24392 -0.0261,-0.0521 -0.0349,-0.13078 -0.061,-0.18293 -0.0526,-0.10516 -0.2056,-0.18996 -0.24392,-0.3049 -0.0344,-0.10307 0.0243,-0.30489 -0.12195,-0.30489"
       id="path6" /><path
       style="fill:#ff8c00;fill-opacity:1;stroke-width:0.264583"
       d="m 100.91978,154.52008 5.00026,18.53753 5.61004,-0.12196 3.23187,-10.54932 3.04894,10.42736 5.54906,-0.12195 5.732,-22.01332 -5.30515,-0.18294 -3.23187,13.72022 -4.63438,-13.4763 -0.79273,-0.67077 -0.73174,0.8537 -3.29285,9.32975 -1.58545,4.20753 -1.76838,-10.00051 -6.8906,-0.24392 z"
       id="path7" /><path
       style="fill:#ff8c00;fill-opacity:1;stroke-width:0.264583"
       d="m 100.99601,153.77309 6.92108,0.19818 0.0915,1.34153 -6.93633,-0.25916 -0.19818,-1.31104 z"
       id="path8" /></g><g
     id="layer2"
     style="fill:#333333;fill-opacity:1"
     transform="translate(-85.41801,-145.6973)"><path
       style="fill:#333333;fill-opacity:1;stroke-width:0.264583"
       d="m 85.418006,151.08139 0.243914,22.31821 4.695362,-0.061 0.06098,-8.90287 7.012551,0.12196 v -4.32949 h -7.073531 l -0.121958,-4.63438 h 8.293106 l -0.121957,-4.51243"
       id="path3" /></g></svg>
